<svg width="129" height="59" viewBox="0 0 129 59" fill="none" xmlns="http://www.w3.org/2000/svg">
<circle cx="107.861" cy="22.5327" r="15.2526" stroke="white" stroke-width="0.435788"/>
<path d="M23.9172 43.6944C22.9236 43.6944 22.1066 43.2418 21.4663 42.3365C20.8481 41.4091 20.539 40.261 20.539 38.892C20.539 37.236 20.6494 35.7235 20.8702 34.3546C21.091 32.9636 21.4553 31.4952 21.9631 29.9496C22.1839 29.2872 22.493 28.8125 22.8905 28.5255C23.2879 28.2384 23.9172 28.0949 24.7783 28.0949C25.2641 28.0949 25.5953 28.1722 25.7719 28.3268C25.9706 28.4813 26.07 28.7132 26.07 29.0223C26.07 29.1989 25.9485 29.7951 25.7057 30.8108C25.4849 31.6277 25.3082 32.3674 25.1757 33.0298C24.7341 35.3482 24.5133 36.8938 24.5133 37.6666C24.5133 38.1303 24.5685 38.4615 24.6789 38.6602C24.7893 38.8368 24.966 38.9251 25.2089 38.9251C25.5401 38.9251 25.9485 38.5939 26.4343 37.9315C26.9421 37.2691 27.4721 36.2645 28.0241 34.9176C28.5981 33.5708 29.1501 31.9148 29.68 29.9496C29.8567 29.2872 30.1216 28.8125 30.4749 28.5255C30.8503 28.2384 31.4023 28.0949 32.1309 28.0949C32.6388 28.0949 32.992 28.1612 33.1908 28.2936C33.3895 28.404 33.4888 28.6248 33.4888 28.956C33.4888 29.508 33.2128 31.0205 32.6608 33.4935C32.0426 36.3197 31.7335 38.064 31.7335 38.7264C31.7335 39.1459 31.8218 39.4771 31.9984 39.72C32.1751 39.9408 32.4069 40.0512 32.694 40.0512C33.1356 40.0512 33.6544 39.7863 34.2506 39.2563C34.8688 38.7043 35.6858 37.8211 36.7015 36.6067C36.9664 36.2976 37.2645 36.1431 37.5957 36.1431C37.8828 36.1431 38.1035 36.2755 38.2581 36.5405C38.4347 36.8055 38.5231 37.1698 38.5231 37.6335C38.5231 38.5167 38.3133 39.2011 37.8938 39.6869C36.9444 40.8571 35.9176 41.8176 34.8136 42.5683C33.7317 43.319 32.4952 43.6944 31.1042 43.6944C30.0444 43.6944 29.2605 43.2859 28.7527 42.469C28.2669 41.652 28.0241 40.5039 28.0241 39.0245C27.6487 40.5259 27.0857 41.6851 26.3349 42.5021C25.5842 43.297 24.7783 43.6944 23.9172 43.6944ZM53.5235 36.1431C53.8106 36.1431 54.0314 36.2755 54.1859 36.5405C54.3626 36.8055 54.4509 37.1698 54.4509 37.6335C54.4509 38.5167 54.2411 39.2011 53.8216 39.6869C52.8722 40.8571 51.8455 41.8176 50.7415 42.5683C49.6596 43.319 48.4231 43.6944 47.032 43.6944C45.8618 43.6944 44.9124 43.2749 44.1837 42.4359C42.9252 43.2528 41.6114 43.6723 40.2425 43.6944C39.9554 47.9558 39.3041 51.5107 38.2884 54.359C37.2727 57.2294 35.7823 58.6646 33.8172 58.6646C32.6249 58.6646 31.7417 58.2341 31.1676 57.3729C30.5935 56.5118 30.3065 55.3195 30.3065 53.796C30.3065 51.6321 30.8033 49.104 31.7969 46.2115C32.7905 43.3411 34.325 40.1727 36.4005 36.7061C36.4005 33.4824 36.3785 31.2413 36.3343 29.9828C36.3122 29.3424 36.5661 28.8346 37.0961 28.4592C37.626 28.0839 38.2884 27.8962 39.0833 27.8962C39.5469 27.8962 39.8781 27.9956 40.0769 28.1943C40.2977 28.3709 40.4191 28.7352 40.4412 29.2872C40.4412 29.8392 40.4522 30.2477 40.4743 30.5127C41.1809 29.6295 41.8764 29.0002 42.5609 28.6248C43.2453 28.2274 43.974 28.0287 44.7468 28.0287C45.9832 28.0287 46.9879 28.5255 47.7607 29.5191C48.5556 30.5127 48.953 31.8154 48.953 33.4272C48.953 34.5975 48.7653 35.7346 48.39 36.8386C48.0146 37.9426 47.4957 38.9472 46.8333 39.8525C47.297 39.985 47.6834 40.0512 47.9925 40.0512C48.7212 40.0512 49.4167 39.7863 50.0791 39.2563C50.7415 38.7264 51.5916 37.8432 52.6293 36.6067C52.8943 36.2976 53.1923 36.1431 53.5235 36.1431ZM40.4081 40.5149C41.2029 40.3383 41.9316 39.9077 42.594 39.2232C43.2785 38.5167 43.8194 37.6555 44.2168 36.6399C44.6143 35.6021 44.813 34.5202 44.813 33.3941C44.813 32.7317 44.6805 32.2349 44.4156 31.9037C44.1506 31.5504 43.7973 31.3738 43.3557 31.3738C42.5609 31.3738 41.6004 32.2128 40.4743 33.8909C40.4522 34.8624 40.4412 36.2866 40.4412 38.1634C40.4412 39.1791 40.4301 39.9629 40.4081 40.5149ZM34.0822 55.4189C34.6783 55.4189 35.1751 54.1161 35.5725 51.5107C35.97 48.9274 36.2239 45.7037 36.3343 41.8397C35.3849 44.0477 34.6342 46.1563 34.0822 48.1656C33.5302 50.1749 33.2542 51.864 33.2542 53.2329C33.2542 53.9395 33.3425 54.4805 33.5191 54.8558C33.6737 55.2312 33.8614 55.4189 34.0822 55.4189ZM56.1216 25.909C55.1943 25.909 54.4988 25.6993 54.0351 25.2797C53.5714 24.8381 53.3396 24.2309 53.3396 23.4581C53.3396 22.6853 53.6377 22.045 54.2338 21.5372C54.8521 21.0073 55.6138 20.7423 56.5191 20.7423C57.336 20.7423 57.9984 20.941 58.5063 21.3385C59.0141 21.7359 59.268 22.2989 59.268 23.0276C59.268 23.9108 58.981 24.6173 58.4069 25.1473C57.8328 25.6551 57.0711 25.909 56.1216 25.909ZM55.8567 43.6944C54.4215 43.6944 53.3727 43.1866 52.7103 42.1709C52.07 41.1552 51.7498 39.8083 51.7498 38.1303C51.7498 37.1367 51.8713 35.8671 52.1141 34.3215C52.3791 32.7538 52.7103 31.2965 53.1077 29.9496C53.3065 29.2431 53.5714 28.7573 53.9026 28.4924C54.2338 28.2274 54.7637 28.0949 55.4924 28.0949C56.6184 28.0949 57.1815 28.4703 57.1815 29.221C57.1815 29.773 56.9717 31.0536 56.5522 33.0629C56.0223 35.4917 55.7573 37.1367 55.7573 37.9978C55.7573 38.6602 55.8456 39.168 56.0223 39.5213C56.1989 39.8746 56.497 40.0512 56.9165 40.0512C57.314 40.0512 57.8108 39.7752 58.4069 39.2232C59.0031 38.6712 59.798 37.7991 60.7916 36.6067C61.0565 36.2976 61.3546 36.1431 61.6858 36.1431C61.9728 36.1431 62.1936 36.2755 62.3482 36.5405C62.5248 36.8055 62.6132 37.1698 62.6132 37.6335C62.6132 38.5167 62.4034 39.2011 61.9839 39.6869C59.798 42.3586 57.7556 43.6944 55.8567 43.6944ZM74.705 36.1431C74.9921 36.1431 75.2129 36.2755 75.3674 36.5405C75.5441 36.8055 75.6324 37.1698 75.6324 37.6335C75.6324 38.5167 75.4226 39.2011 75.0031 39.6869C74.0537 40.8571 73.0159 41.8176 71.8898 42.5683C70.7638 43.319 69.4721 43.6944 68.0148 43.6944C63.5105 43.6944 61.2583 40.5259 61.2583 34.189C61.2583 33.2175 61.2915 32.2349 61.3577 31.2413H60.066C59.4036 31.2413 58.951 31.1199 58.7081 30.877C58.4873 30.6341 58.3769 30.2477 58.3769 29.7178C58.3769 28.4813 58.8737 27.8631 59.8673 27.8631H61.7551C62.1305 25.4343 62.7046 23.2153 63.4774 21.206C64.2502 19.1967 65.1775 17.5959 66.2594 16.4036C67.3634 15.2113 68.5447 14.6151 69.8033 14.6151C70.7306 14.6151 71.4593 15.0236 71.9892 15.8406C72.5191 16.6575 72.7841 17.6842 72.7841 18.9207C72.7841 22.3431 71.3489 25.3239 68.4785 27.8631H72.1879C72.5412 27.8631 72.7951 27.9404 72.9497 28.0949C73.1042 28.2495 73.1815 28.5365 73.1815 28.956C73.1815 30.4796 71.934 31.2413 69.439 31.2413H65.3983C65.3542 32.3453 65.3321 33.2064 65.3321 33.8247C65.3321 36.121 65.5971 37.7328 66.127 38.6602C66.679 39.5875 67.5401 40.0512 68.7103 40.0512C69.6598 40.0512 70.4988 39.7642 71.2274 39.1901C71.9561 38.616 72.8172 37.7549 73.8108 36.6067C74.0758 36.2976 74.3738 36.1431 74.705 36.1431ZM68.909 17.7946C68.5778 17.7946 68.2025 18.2142 67.783 19.0532C67.3855 19.8701 66.9991 21.0183 66.6238 22.4977C66.2705 23.9549 65.9724 25.5778 65.7295 27.3663C67.0322 26.2402 68.0038 24.9817 68.6441 23.5906C69.3065 22.1775 69.6377 20.8969 69.6377 19.7487C69.6377 18.446 69.3948 17.7946 68.909 17.7946ZM87.7072 36.1431C87.9942 36.1431 88.215 36.2755 88.3696 36.5405C88.5462 36.8055 88.6345 37.1698 88.6345 37.6335C88.6345 38.5167 88.4248 39.2011 88.0053 39.6869C87.1883 40.6805 86.0291 41.5968 84.5277 42.4359C83.0483 43.2749 81.4586 43.6944 79.7584 43.6944C77.44 43.6944 75.6405 43.0651 74.3599 41.8066C73.0792 40.548 72.4389 38.8258 72.4389 36.6399C72.4389 35.1163 72.7591 33.7032 73.3994 32.4005C74.0397 31.0757 74.9229 30.0269 76.049 29.2541C77.1971 28.4813 78.4888 28.0949 79.924 28.0949C81.2046 28.0949 82.2314 28.4813 83.0042 29.2541C83.777 30.0048 84.1634 31.0316 84.1634 32.3343C84.1634 33.8578 83.6114 35.1715 82.5074 36.2755C81.4254 37.3575 79.5818 38.2186 76.9763 38.8589C77.5283 39.8746 78.5771 40.3824 80.1227 40.3824C81.1163 40.3824 82.2424 40.0402 83.501 39.3557C84.7816 38.6491 85.8856 37.7328 86.8129 36.6067C87.0779 36.2976 87.376 36.1431 87.7072 36.1431ZM79.361 31.3407C78.544 31.3407 77.8485 31.8154 77.2744 32.7648C76.7224 33.7143 76.4464 34.8624 76.4464 36.2093V36.2755C77.7491 35.9664 78.7758 35.5027 79.5266 34.8845C80.2773 34.2663 80.6526 33.5487 80.6526 32.7317C80.6526 32.3122 80.5312 31.981 80.2883 31.7381C80.0675 31.4732 79.7584 31.3407 79.361 31.3407ZM99.3183 32.6324C99.8041 32.6324 100.213 32.809 100.544 33.1623C100.897 33.4935 101.074 33.913 101.074 34.4208C101.074 34.7079 101.007 35.017 100.875 35.3482C100.522 36.1651 100.025 36.8496 99.3845 37.4016C98.7442 37.9536 98.0377 38.2296 97.2649 38.2296C96.6466 38.2296 96.1167 38.0088 95.6751 37.5672C95.2556 37.1256 95.0458 36.5295 95.0458 35.7787C95.0458 35.3592 95.0679 34.9066 95.1121 34.4208C95.1562 34.0676 95.1783 33.8247 95.1783 33.6922C95.1783 33.5156 95.1342 33.3831 95.0458 33.2948C94.9796 33.2064 94.8913 33.1623 94.7809 33.1623C94.4718 33.1623 94.0522 33.5376 93.5223 34.2884C92.9924 35.017 92.4625 35.9885 91.9326 37.2029C91.4026 38.4173 90.9721 39.6979 90.6409 41.0448C90.398 42.1047 90.122 42.8112 89.8129 43.1645C89.5038 43.5178 88.9959 43.6944 88.2894 43.6944C87.4503 43.6944 86.8542 43.2528 86.5009 42.3696C86.1697 41.4864 86.0041 40.0733 86.0041 38.1303C86.0041 35.2599 86.4126 32.533 87.2295 29.9496C87.4283 29.3093 87.7484 28.8456 88.19 28.5586C88.6537 28.2495 89.294 28.0949 90.111 28.0949C90.5526 28.0949 90.8617 28.1501 91.0383 28.2605C91.215 28.3709 91.3033 28.5807 91.3033 28.8898C91.3033 29.2431 91.1377 30.038 90.8065 31.2744C90.5857 32.1576 90.409 32.9304 90.2766 33.5928C90.1441 34.2552 90.0337 35.0722 89.9454 36.0437C90.674 34.1448 91.491 32.5992 92.3962 31.4069C93.3015 30.2146 94.1847 29.3645 95.0458 28.8567C95.907 28.3488 96.6908 28.0949 97.3973 28.0949C98.0377 28.0949 98.5234 28.2826 98.8546 28.658C99.2079 29.0112 99.3845 29.5412 99.3845 30.2477C99.3845 30.6672 99.2631 31.4621 99.0202 32.6324H99.3183Z" fill="white"/>
<mask id="path-3-outside-1_2_441" maskUnits="userSpaceOnUse" x="19.7463" y="13.5288" width="82" height="46" fill="black">
<rect fill="white" x="19.7463" y="13.5288" width="82" height="46"/>
<path d="M23.9172 43.6944C22.9236 43.6944 22.1066 43.2418 21.4663 42.3365C20.8481 41.4091 20.539 40.261 20.539 38.892C20.539 37.236 20.6494 35.7235 20.8702 34.3546C21.091 32.9636 21.4553 31.4952 21.9631 29.9496C22.1839 29.2872 22.493 28.8125 22.8905 28.5255C23.2879 28.2384 23.9172 28.0949 24.7783 28.0949C25.2641 28.0949 25.5953 28.1722 25.7719 28.3268C25.9706 28.4813 26.07 28.7132 26.07 29.0223C26.07 29.1989 25.9485 29.7951 25.7057 30.8108C25.4849 31.6277 25.3082 32.3674 25.1757 33.0298C24.7341 35.3482 24.5133 36.8938 24.5133 37.6666C24.5133 38.1303 24.5685 38.4615 24.6789 38.6602C24.7893 38.8368 24.966 38.9251 25.2089 38.9251C25.5401 38.9251 25.9485 38.5939 26.4343 37.9315C26.9421 37.2691 27.4721 36.2645 28.0241 34.9176C28.5981 33.5708 29.1501 31.9148 29.68 29.9496C29.8567 29.2872 30.1216 28.8125 30.4749 28.5255C30.8503 28.2384 31.4023 28.0949 32.1309 28.0949C32.6388 28.0949 32.992 28.1612 33.1908 28.2936C33.3895 28.404 33.4888 28.6248 33.4888 28.956C33.4888 29.508 33.2128 31.0205 32.6608 33.4935C32.0426 36.3197 31.7335 38.064 31.7335 38.7264C31.7335 39.1459 31.8218 39.4771 31.9984 39.72C32.1751 39.9408 32.4069 40.0512 32.694 40.0512C33.1356 40.0512 33.6544 39.7863 34.2506 39.2563C34.8688 38.7043 35.6858 37.8211 36.7015 36.6067C36.9664 36.2976 37.2645 36.1431 37.5957 36.1431C37.8828 36.1431 38.1035 36.2755 38.2581 36.5405C38.4347 36.8055 38.5231 37.1698 38.5231 37.6335C38.5231 38.5167 38.3133 39.2011 37.8938 39.6869C36.9444 40.8571 35.9176 41.8176 34.8136 42.5683C33.7317 43.319 32.4952 43.6944 31.1042 43.6944C30.0444 43.6944 29.2605 43.2859 28.7527 42.469C28.2669 41.652 28.0241 40.5039 28.0241 39.0245C27.6487 40.5259 27.0857 41.6851 26.3349 42.5021C25.5842 43.297 24.7783 43.6944 23.9172 43.6944ZM53.5235 36.1431C53.8106 36.1431 54.0314 36.2755 54.1859 36.5405C54.3626 36.8055 54.4509 37.1698 54.4509 37.6335C54.4509 38.5167 54.2411 39.2011 53.8216 39.6869C52.8722 40.8571 51.8455 41.8176 50.7415 42.5683C49.6596 43.319 48.4231 43.6944 47.032 43.6944C45.8618 43.6944 44.9124 43.2749 44.1837 42.4359C42.9252 43.2528 41.6114 43.6723 40.2425 43.6944C39.9554 47.9558 39.3041 51.5107 38.2884 54.359C37.2727 57.2294 35.7823 58.6646 33.8172 58.6646C32.6249 58.6646 31.7417 58.2341 31.1676 57.3729C30.5935 56.5118 30.3065 55.3195 30.3065 53.796C30.3065 51.6321 30.8033 49.104 31.7969 46.2115C32.7905 43.3411 34.325 40.1727 36.4005 36.7061C36.4005 33.4824 36.3785 31.2413 36.3343 29.9828C36.3122 29.3424 36.5661 28.8346 37.0961 28.4592C37.626 28.0839 38.2884 27.8962 39.0833 27.8962C39.5469 27.8962 39.8781 27.9956 40.0769 28.1943C40.2977 28.3709 40.4191 28.7352 40.4412 29.2872C40.4412 29.8392 40.4522 30.2477 40.4743 30.5127C41.1809 29.6295 41.8764 29.0002 42.5609 28.6248C43.2453 28.2274 43.974 28.0287 44.7468 28.0287C45.9832 28.0287 46.9879 28.5255 47.7607 29.5191C48.5556 30.5127 48.953 31.8154 48.953 33.4272C48.953 34.5975 48.7653 35.7346 48.39 36.8386C48.0146 37.9426 47.4957 38.9472 46.8333 39.8525C47.297 39.985 47.6834 40.0512 47.9925 40.0512C48.7212 40.0512 49.4167 39.7863 50.0791 39.2563C50.7415 38.7264 51.5916 37.8432 52.6293 36.6067C52.8943 36.2976 53.1923 36.1431 53.5235 36.1431ZM40.4081 40.5149C41.2029 40.3383 41.9316 39.9077 42.594 39.2232C43.2785 38.5167 43.8194 37.6555 44.2168 36.6399C44.6143 35.6021 44.813 34.5202 44.813 33.3941C44.813 32.7317 44.6805 32.2349 44.4156 31.9037C44.1506 31.5504 43.7973 31.3738 43.3557 31.3738C42.5609 31.3738 41.6004 32.2128 40.4743 33.8909C40.4522 34.8624 40.4412 36.2866 40.4412 38.1634C40.4412 39.1791 40.4301 39.9629 40.4081 40.5149ZM34.0822 55.4189C34.6783 55.4189 35.1751 54.1161 35.5725 51.5107C35.97 48.9274 36.2239 45.7037 36.3343 41.8397C35.3849 44.0477 34.6342 46.1563 34.0822 48.1656C33.5302 50.1749 33.2542 51.864 33.2542 53.2329C33.2542 53.9395 33.3425 54.4805 33.5191 54.8558C33.6737 55.2312 33.8614 55.4189 34.0822 55.4189ZM56.1216 25.909C55.1943 25.909 54.4988 25.6993 54.0351 25.2797C53.5714 24.8381 53.3396 24.2309 53.3396 23.4581C53.3396 22.6853 53.6377 22.045 54.2338 21.5372C54.8521 21.0073 55.6138 20.7423 56.5191 20.7423C57.336 20.7423 57.9984 20.941 58.5063 21.3385C59.0141 21.7359 59.268 22.2989 59.268 23.0276C59.268 23.9108 58.981 24.6173 58.4069 25.1473C57.8328 25.6551 57.0711 25.909 56.1216 25.909ZM55.8567 43.6944C54.4215 43.6944 53.3727 43.1866 52.7103 42.1709C52.07 41.1552 51.7498 39.8083 51.7498 38.1303C51.7498 37.1367 51.8713 35.8671 52.1141 34.3215C52.3791 32.7538 52.7103 31.2965 53.1077 29.9496C53.3065 29.2431 53.5714 28.7573 53.9026 28.4924C54.2338 28.2274 54.7637 28.0949 55.4924 28.0949C56.6184 28.0949 57.1815 28.4703 57.1815 29.221C57.1815 29.773 56.9717 31.0536 56.5522 33.0629C56.0223 35.4917 55.7573 37.1367 55.7573 37.9978C55.7573 38.6602 55.8456 39.168 56.0223 39.5213C56.1989 39.8746 56.497 40.0512 56.9165 40.0512C57.314 40.0512 57.8108 39.7752 58.4069 39.2232C59.0031 38.6712 59.798 37.7991 60.7916 36.6067C61.0565 36.2976 61.3546 36.1431 61.6858 36.1431C61.9728 36.1431 62.1936 36.2755 62.3482 36.5405C62.5248 36.8055 62.6132 37.1698 62.6132 37.6335C62.6132 38.5167 62.4034 39.2011 61.9839 39.6869C59.798 42.3586 57.7556 43.6944 55.8567 43.6944ZM74.705 36.1431C74.9921 36.1431 75.2129 36.2755 75.3674 36.5405C75.5441 36.8055 75.6324 37.1698 75.6324 37.6335C75.6324 38.5167 75.4226 39.2011 75.0031 39.6869C74.0537 40.8571 73.0159 41.8176 71.8898 42.5683C70.7638 43.319 69.4721 43.6944 68.0148 43.6944C63.5105 43.6944 61.2583 40.5259 61.2583 34.189C61.2583 33.2175 61.2915 32.2349 61.3577 31.2413H60.066C59.4036 31.2413 58.951 31.1199 58.7081 30.877C58.4873 30.6341 58.3769 30.2477 58.3769 29.7178C58.3769 28.4813 58.8737 27.8631 59.8673 27.8631H61.7551C62.1305 25.4343 62.7046 23.2153 63.4774 21.206C64.2502 19.1967 65.1775 17.5959 66.2594 16.4036C67.3634 15.2113 68.5447 14.6151 69.8033 14.6151C70.7306 14.6151 71.4593 15.0236 71.9892 15.8406C72.5191 16.6575 72.7841 17.6842 72.7841 18.9207C72.7841 22.3431 71.3489 25.3239 68.4785 27.8631H72.1879C72.5412 27.8631 72.7951 27.9404 72.9497 28.0949C73.1042 28.2495 73.1815 28.5365 73.1815 28.956C73.1815 30.4796 71.934 31.2413 69.439 31.2413H65.3983C65.3542 32.3453 65.3321 33.2064 65.3321 33.8247C65.3321 36.121 65.5971 37.7328 66.127 38.6602C66.679 39.5875 67.5401 40.0512 68.7103 40.0512C69.6598 40.0512 70.4988 39.7642 71.2274 39.1901C71.9561 38.616 72.8172 37.7549 73.8108 36.6067C74.0758 36.2976 74.3738 36.1431 74.705 36.1431ZM68.909 17.7946C68.5778 17.7946 68.2025 18.2142 67.783 19.0532C67.3855 19.8701 66.9991 21.0183 66.6238 22.4977C66.2705 23.9549 65.9724 25.5778 65.7295 27.3663C67.0322 26.2402 68.0038 24.9817 68.6441 23.5906C69.3065 22.1775 69.6377 20.8969 69.6377 19.7487C69.6377 18.446 69.3948 17.7946 68.909 17.7946ZM87.7072 36.1431C87.9942 36.1431 88.215 36.2755 88.3696 36.5405C88.5462 36.8055 88.6345 37.1698 88.6345 37.6335C88.6345 38.5167 88.4248 39.2011 88.0053 39.6869C87.1883 40.6805 86.0291 41.5968 84.5277 42.4359C83.0483 43.2749 81.4586 43.6944 79.7584 43.6944C77.44 43.6944 75.6405 43.0651 74.3599 41.8066C73.0792 40.548 72.4389 38.8258 72.4389 36.6399C72.4389 35.1163 72.7591 33.7032 73.3994 32.4005C74.0397 31.0757 74.9229 30.0269 76.049 29.2541C77.1971 28.4813 78.4888 28.0949 79.924 28.0949C81.2046 28.0949 82.2314 28.4813 83.0042 29.2541C83.777 30.0048 84.1634 31.0316 84.1634 32.3343C84.1634 33.8578 83.6114 35.1715 82.5074 36.2755C81.4254 37.3575 79.5818 38.2186 76.9763 38.8589C77.5283 39.8746 78.5771 40.3824 80.1227 40.3824C81.1163 40.3824 82.2424 40.0402 83.501 39.3557C84.7816 38.6491 85.8856 37.7328 86.8129 36.6067C87.0779 36.2976 87.376 36.1431 87.7072 36.1431ZM79.361 31.3407C78.544 31.3407 77.8485 31.8154 77.2744 32.7648C76.7224 33.7143 76.4464 34.8624 76.4464 36.2093V36.2755C77.7491 35.9664 78.7758 35.5027 79.5266 34.8845C80.2773 34.2663 80.6526 33.5487 80.6526 32.7317C80.6526 32.3122 80.5312 31.981 80.2883 31.7381C80.0675 31.4732 79.7584 31.3407 79.361 31.3407ZM99.3183 32.6324C99.8041 32.6324 100.213 32.809 100.544 33.1623C100.897 33.4935 101.074 33.913 101.074 34.4208C101.074 34.7079 101.007 35.017 100.875 35.3482C100.522 36.1651 100.025 36.8496 99.3845 37.4016C98.7442 37.9536 98.0377 38.2296 97.2649 38.2296C96.6466 38.2296 96.1167 38.0088 95.6751 37.5672C95.2556 37.1256 95.0458 36.5295 95.0458 35.7787C95.0458 35.3592 95.0679 34.9066 95.1121 34.4208C95.1562 34.0676 95.1783 33.8247 95.1783 33.6922C95.1783 33.5156 95.1342 33.3831 95.0458 33.2948C94.9796 33.2064 94.8913 33.1623 94.7809 33.1623C94.4718 33.1623 94.0522 33.5376 93.5223 34.2884C92.9924 35.017 92.4625 35.9885 91.9326 37.2029C91.4026 38.4173 90.9721 39.6979 90.6409 41.0448C90.398 42.1047 90.122 42.8112 89.8129 43.1645C89.5038 43.5178 88.9959 43.6944 88.2894 43.6944C87.4503 43.6944 86.8542 43.2528 86.5009 42.3696C86.1697 41.4864 86.0041 40.0733 86.0041 38.1303C86.0041 35.2599 86.4126 32.533 87.2295 29.9496C87.4283 29.3093 87.7484 28.8456 88.19 28.5586C88.6537 28.2495 89.294 28.0949 90.111 28.0949C90.5526 28.0949 90.8617 28.1501 91.0383 28.2605C91.215 28.3709 91.3033 28.5807 91.3033 28.8898C91.3033 29.2431 91.1377 30.038 90.8065 31.2744C90.5857 32.1576 90.409 32.9304 90.2766 33.5928C90.1441 34.2552 90.0337 35.0722 89.9454 36.0437C90.674 34.1448 91.491 32.5992 92.3962 31.4069C93.3015 30.2146 94.1847 29.3645 95.0458 28.8567C95.907 28.3488 96.6908 28.0949 97.3973 28.0949C98.0377 28.0949 98.5234 28.2826 98.8546 28.658C99.2079 29.0112 99.3845 29.5412 99.3845 30.2477C99.3845 30.6672 99.2631 31.4621 99.0202 32.6324H99.3183Z"/>
</mask>
<path d="M21.4663 42.3365L21.1036 42.5783L21.1105 42.5881L21.4663 42.3365ZM20.8702 34.3546L21.3004 34.424L21.3006 34.4229L20.8702 34.3546ZM21.9631 29.9496L21.5497 29.8118L21.5491 29.8136L21.9631 29.9496ZM22.8905 28.5255L23.1456 28.8788H23.1456L22.8905 28.5255ZM25.7719 28.3268L25.4849 28.6547L25.4944 28.663L25.5044 28.6708L25.7719 28.3268ZM25.7057 30.8108L26.1265 30.9245L26.1295 30.9121L25.7057 30.8108ZM25.1757 33.0298L24.7484 32.9443L24.7476 32.9483L25.1757 33.0298ZM24.6789 38.6602L24.298 38.8718L24.3034 38.8816L24.3094 38.8911L24.6789 38.6602ZM26.4343 37.9315L26.0884 37.6663L26.0829 37.6738L26.4343 37.9315ZM28.0241 34.9176L27.6231 34.7467L27.6208 34.7524L28.0241 34.9176ZM29.68 29.9496L30.1008 30.0631L30.1011 30.0619L29.68 29.9496ZM30.4749 28.5255L30.2101 28.1792L30.2001 28.1873L30.4749 28.5255ZM33.1908 28.2936L32.949 28.6562L32.9637 28.666L32.9791 28.6746L33.1908 28.2936ZM32.6608 33.4935L32.2355 33.3985L32.2351 33.4003L32.6608 33.4935ZM31.9984 39.72L31.646 39.9763L31.6519 39.9844L31.6582 39.9923L31.9984 39.72ZM34.2506 39.2563L34.5401 39.5821L34.5408 39.5814L34.2506 39.2563ZM36.7015 36.6067L36.3706 36.3231L36.3672 36.3272L36.7015 36.6067ZM38.2581 36.5405L37.8817 36.7601L37.8883 36.7714L37.8955 36.7822L38.2581 36.5405ZM37.8938 39.6869L37.5638 39.4019L37.5554 39.4123L37.8938 39.6869ZM34.8136 42.5683L34.5686 42.208L34.5652 42.2103L34.8136 42.5683ZM28.7527 42.469L28.378 42.6917L28.3826 42.699L28.7527 42.469ZM28.0241 39.0245H28.4598L27.6013 38.9188L28.0241 39.0245ZM26.3349 42.5021L26.6518 42.8013L26.6558 42.797L26.3349 42.5021ZM23.9172 43.2586C23.0831 43.2586 22.3917 42.8902 21.8221 42.0848L21.1105 42.5881C21.8215 43.5933 22.7641 44.1302 23.9172 44.1302V43.2586ZM21.8289 42.0948C21.2683 41.2538 20.9747 40.1947 20.9747 38.892H20.1032C20.1032 40.3272 20.4278 41.5644 21.1037 42.5782L21.8289 42.0948ZM20.9747 38.892C20.9747 37.2549 21.0839 35.7661 21.3004 34.424L20.4399 34.2852C20.2148 35.681 20.1032 37.2171 20.1032 38.892H20.9747ZM21.3006 34.4229C21.5172 33.058 21.8755 31.6125 22.3771 30.0857L21.5491 29.8136C21.0351 31.378 20.6647 32.8691 20.4398 34.2863L21.3006 34.4229ZM22.3765 30.0875C22.5803 29.4762 22.8476 29.094 23.1456 28.8788L22.6353 28.1722C22.1384 28.5311 21.7875 29.0983 21.5497 29.8118L22.3765 30.0875ZM23.1456 28.8788C23.431 28.6726 23.9474 28.5307 24.7783 28.5307V27.6591C23.8869 27.6591 23.1448 27.8042 22.6353 28.1722L23.1456 28.8788ZM24.7783 28.5307C25.2531 28.5307 25.4379 28.6135 25.4849 28.6547L26.0589 27.9988C25.7527 27.7309 25.2751 27.6591 24.7783 27.6591V28.5307ZM25.5044 28.6708C25.5727 28.7239 25.6342 28.8137 25.6342 29.0223H26.5058C26.5058 28.6127 26.3685 28.2387 26.0394 27.9828L25.5044 28.6708ZM25.6342 29.0223C25.6342 29.0214 25.6342 29.0241 25.6337 29.0315C25.6332 29.0387 25.6324 29.0485 25.631 29.0615C25.6282 29.0876 25.6236 29.122 25.6167 29.1658C25.6029 29.2534 25.5816 29.3692 25.5519 29.5149C25.4926 29.806 25.4028 30.2035 25.2818 30.7094L26.1295 30.9121C26.2514 30.4024 26.3438 29.994 26.4059 29.6889C26.4642 29.4025 26.5058 29.1633 26.5058 29.0223H25.6342ZM25.285 30.6971C25.0622 31.5211 24.8832 32.2704 24.7484 32.9443L25.6031 33.1153C25.7332 32.4644 25.9075 31.7343 26.1264 30.9245L25.285 30.6971ZM24.7476 32.9483C24.3075 35.2592 24.0776 36.8456 24.0776 37.6666H24.9491C24.9491 36.942 25.1608 35.4372 25.6038 33.1113L24.7476 32.9483ZM24.0776 37.6666C24.0776 38.1423 24.1303 38.5699 24.298 38.8718L25.0599 38.4485C25.0068 38.353 24.9491 38.1182 24.9491 37.6666H24.0776ZM24.3094 38.8911C24.5138 39.2182 24.845 39.3609 25.2089 39.3609V38.4893C25.087 38.4893 25.0649 38.4554 25.0485 38.4292L24.3094 38.8911ZM25.2089 39.3609C25.5183 39.3609 25.799 39.2091 26.0381 39.0152C26.2828 38.8168 26.5316 38.5357 26.7857 38.1893L26.0829 37.6738C25.8512 37.9898 25.6529 38.2055 25.4892 38.3382C25.3198 38.4756 25.2307 38.4893 25.2089 38.4893V39.3609ZM26.7801 38.1967C27.3226 37.4892 27.8698 36.4432 28.4273 35.0829L27.6208 34.7524C27.0743 36.0858 26.5617 37.0491 26.0885 37.6664L26.7801 38.1967ZM28.4249 35.0885C29.0094 33.7174 29.5675 32.0409 30.1008 30.0631L29.2593 29.8362C28.7328 31.7887 28.1869 33.4241 27.6232 34.7468L28.4249 35.0885ZM30.1011 30.0619C30.2654 29.4459 30.4957 29.0701 30.7497 28.8637L30.2001 28.1873C29.7476 28.555 29.448 29.1286 29.259 29.8374L30.1011 30.0619ZM30.7396 28.8717C31.0077 28.6667 31.4491 28.5307 32.1309 28.5307V27.6591C31.3555 27.6591 30.6929 27.8102 30.2102 28.1793L30.7396 28.8717ZM32.1309 28.5307C32.6304 28.5307 32.8668 28.6014 32.949 28.6562L33.4325 27.931C33.1173 27.7209 32.6471 27.6591 32.1309 27.6591V28.5307ZM32.9791 28.6746C32.9909 28.6811 33.0031 28.6902 33.0169 28.7209C33.0338 28.7584 33.0531 28.8308 33.0531 28.956H33.9246C33.9246 28.5467 33.7976 28.1323 33.4024 27.9127L32.9791 28.6746ZM33.0531 28.956C33.0531 29.1868 32.9919 29.6655 32.8531 30.4262C32.7166 31.1744 32.511 32.1646 32.2355 33.3985L33.0862 33.5884C33.3627 32.3494 33.5711 31.3469 33.7106 30.5826C33.8477 29.8308 33.9246 29.2773 33.9246 28.956H33.0531ZM32.2351 33.4003C31.9254 34.8161 31.6922 35.965 31.5362 36.8453C31.3822 37.7144 31.2977 38.3517 31.2977 38.7264H32.1693C32.1693 38.4387 32.2393 37.8727 32.3944 36.9974C32.5475 36.1334 32.778 34.9971 33.0866 33.5866L32.2351 33.4003ZM31.2977 38.7264C31.2977 39.2025 31.3975 39.6346 31.646 39.9763L32.3509 39.4637C32.2461 39.3197 32.1693 39.0894 32.1693 38.7264H31.2977ZM31.6582 39.9923C31.9189 40.3182 32.2769 40.487 32.694 40.487V39.6154C32.537 39.6154 32.4312 39.5634 32.3387 39.4478L31.6582 39.9923ZM32.694 40.487C33.3001 40.487 33.9219 40.1316 34.5401 39.5821L33.9611 38.9306C33.387 39.4409 32.971 39.6154 32.694 39.6154V40.487ZM34.5408 39.5814C35.1832 39.0079 36.0164 38.1052 37.0358 36.8863L36.3672 36.3272C35.3552 37.5371 34.5545 38.4008 33.9604 38.9313L34.5408 39.5814ZM37.0323 36.8904C37.2352 36.6537 37.4204 36.5789 37.5957 36.5789V35.7073C37.1086 35.7073 36.6977 35.9416 36.3706 36.3231L37.0323 36.8904ZM37.5957 36.5789C37.7152 36.5789 37.7987 36.6178 37.8817 36.7601L38.6345 36.3209C38.4084 35.9333 38.0503 35.7073 37.5957 35.7073V36.5789ZM37.8955 36.7822C38.0073 36.9499 38.0873 37.2186 38.0873 37.6335H38.9589C38.9589 37.121 38.8622 36.661 38.6207 36.2988L37.8955 36.7822ZM38.0873 37.6335C38.0873 38.4514 37.8932 39.0209 37.564 39.4021L38.2236 39.9717C38.7334 39.3814 38.9589 38.5819 38.9589 37.6335H38.0873ZM37.5554 39.4123C36.6293 40.5537 35.6333 41.484 34.5686 42.208L35.0587 42.9287C36.202 42.1512 37.2594 41.1605 38.2322 39.9615L37.5554 39.4123ZM34.5652 42.2103C33.5605 42.9075 32.4117 43.2586 31.1042 43.2586V44.1302C32.5788 44.1302 33.903 43.7306 35.0621 42.9264L34.5652 42.2103ZM31.1042 43.2586C30.1767 43.2586 29.5419 42.9131 29.1228 42.2389L28.3826 42.699C28.9792 43.6587 29.9121 44.1302 31.1042 44.1302V43.2586ZM29.1273 42.2463C28.698 41.5242 28.4598 40.4654 28.4598 39.0245H27.5883C27.5883 40.5424 27.8359 41.7798 28.3781 42.6917L29.1273 42.2463ZM27.6013 38.9188C27.237 40.3761 26.7 41.4608 26.0141 42.2072L26.6558 42.797C27.4714 41.9095 28.0604 40.6758 28.4468 39.1302L27.6013 38.9188ZM26.0181 42.2029C25.3262 42.9355 24.628 43.2586 23.9172 43.2586V44.1302C24.9286 44.1302 25.8423 43.6584 26.6518 42.8013L26.0181 42.2029ZM54.1859 36.5405L53.8095 36.7601L53.8161 36.7714L53.8233 36.7822L54.1859 36.5405ZM53.8216 39.6869L53.4917 39.4019L53.4832 39.4123L53.8216 39.6869ZM50.7415 42.5683L50.4964 42.208L50.493 42.2103L50.7415 42.5683ZM44.1837 42.4359L44.5128 42.1501L44.2643 41.864L43.9465 42.0703L44.1837 42.4359ZM40.2425 43.6944L40.2354 43.2587L39.8346 43.2651L39.8077 43.6651L40.2425 43.6944ZM38.2884 54.359L37.8779 54.2127L37.8776 54.2137L38.2884 54.359ZM31.7969 46.2115L31.3851 46.069L31.3847 46.0699L31.7969 46.2115ZM36.4005 36.7061L36.7744 36.93L36.8363 36.8266V36.7061H36.4005ZM36.3343 29.9828L35.8988 29.9978L35.8988 29.998L36.3343 29.9828ZM37.0961 28.4592L37.348 28.8149H37.348L37.0961 28.4592ZM40.0769 28.1943L39.7687 28.5024L39.7858 28.5195L39.8046 28.5346L40.0769 28.1943ZM40.4412 29.2872H40.877V29.2785L40.8766 29.2698L40.4412 29.2872ZM40.4743 30.5127L40.04 30.5489L40.1309 31.6395L40.8146 30.7849L40.4743 30.5127ZM42.5609 28.6248L42.7705 29.0071L42.7797 29.0017L42.5609 28.6248ZM47.7607 29.5191L47.4167 29.7867L47.4204 29.7913L47.7607 29.5191ZM48.39 36.8386L47.9774 36.6983L48.39 36.8386ZM46.8333 39.8525L46.4816 39.5952L46.1124 40.0998L46.7136 40.2715L46.8333 39.8525ZM50.0791 39.2563L50.3513 39.5966L50.0791 39.2563ZM52.6293 36.6067L52.2984 36.3231L52.2955 36.3266L52.6293 36.6067ZM40.4081 40.5149L39.9726 40.4975L39.95 41.0631L40.5026 40.9403L40.4081 40.5149ZM42.594 39.2232L42.281 38.92L42.2808 38.9202L42.594 39.2232ZM44.2168 36.6399L44.6227 36.7987L44.6238 36.7957L44.2168 36.6399ZM44.4156 31.9037L44.0668 32.1653L44.0753 32.176L44.4156 31.9037ZM40.4743 33.8909L40.1124 33.6481L40.0415 33.7538L40.0386 33.881L40.4743 33.8909ZM35.5725 51.5107L35.1418 51.4444L35.1417 51.445L35.5725 51.5107ZM36.3343 41.8397L36.7699 41.8521L35.934 41.6675L36.3343 41.8397ZM34.0822 48.1656L33.6619 48.0502L34.0822 48.1656ZM33.5191 54.8558L33.9221 54.6899L33.918 54.68L33.9134 54.6703L33.5191 54.8558ZM53.5235 36.5789C53.643 36.5789 53.7265 36.6178 53.8095 36.7601L54.5624 36.3209C54.3363 35.9333 53.9781 35.7073 53.5235 35.7073V36.5789ZM53.8233 36.7822C53.9351 36.9499 54.0151 37.2186 54.0151 37.6335H54.8867C54.8867 37.121 54.7901 36.661 54.5485 36.2988L53.8233 36.7822ZM54.0151 37.6335C54.0151 38.4514 53.821 39.0209 53.4918 39.4021L54.1514 39.9717C54.6613 39.3814 54.8867 38.5819 54.8867 37.6335H54.0151ZM53.4832 39.4123C52.5572 40.5537 51.5611 41.484 50.4964 42.208L50.9865 42.9287C52.1298 42.1512 53.1872 41.1605 54.16 39.9615L53.4832 39.4123ZM50.493 42.2103C49.4883 42.9075 48.3396 43.2586 47.032 43.2586V44.1302C48.5066 44.1302 49.8308 43.7306 50.9899 42.9264L50.493 42.2103ZM47.032 43.2586C45.9804 43.2586 45.1538 42.8882 44.5128 42.1501L43.8547 42.7216C44.671 43.6616 45.7432 44.1302 47.032 44.1302V43.2586ZM43.9465 42.0703C42.7497 42.8472 41.5148 43.238 40.2354 43.2587L40.2495 44.1301C41.708 44.1066 43.1006 43.6585 44.421 42.8014L43.9465 42.0703ZM39.8077 43.6651C39.5223 47.9016 38.8759 51.414 37.8779 54.2127L38.6989 54.5054C39.7323 51.6074 40.3885 48.01 40.6773 43.7237L39.8077 43.6651ZM37.8776 54.2137C36.8839 57.0218 35.502 58.2288 33.8172 58.2288V59.1004C36.0626 59.1004 37.6615 57.437 38.6992 54.5044L37.8776 54.2137ZM33.8172 58.2288C32.7448 58.2288 32.0101 57.8511 31.5302 57.1312L30.805 57.6147C31.4732 58.617 32.505 59.1004 33.8172 59.1004V58.2288ZM31.5302 57.1312C31.0214 56.368 30.7423 55.2719 30.7423 53.796H29.8707C29.8707 55.3671 30.1656 56.6556 30.805 57.6147L31.5302 57.1312ZM30.7423 53.796C30.7423 51.6957 31.2251 49.2173 32.209 46.3531L31.3847 46.0699C30.3814 48.9907 29.8707 51.5686 29.8707 53.796H30.7423ZM32.2087 46.3541C33.1899 43.5195 34.7096 40.3787 36.7744 36.93L36.0267 36.4822C33.9404 39.9667 32.3911 43.1627 31.3851 46.069L32.2087 46.3541ZM36.8363 36.7061C36.8363 33.4828 36.8143 31.2346 36.7698 29.9675L35.8988 29.998C35.9426 31.248 35.9648 33.4821 35.9648 36.7061H36.8363ZM36.7698 29.9677C36.7529 29.4764 36.9358 29.1068 37.348 28.8149L36.8442 28.1036C36.1965 28.5624 35.8716 29.2085 35.8988 29.9978L36.7698 29.9677ZM37.348 28.8149C37.7891 28.5024 38.3581 28.332 39.0833 28.332V27.4604C38.2187 27.4604 37.4629 27.6654 36.8442 28.1036L37.348 28.8149ZM39.0833 28.332C39.5027 28.332 39.6912 28.4249 39.7687 28.5024L40.385 27.8861C40.0651 27.5662 39.5912 27.4604 39.0833 27.4604V28.332ZM39.8046 28.5346C39.8658 28.5835 39.9844 28.7709 40.0057 29.3047L40.8766 29.2698C40.8538 28.6996 40.7295 28.1583 40.3491 27.854L39.8046 28.5346ZM40.0054 29.2872C40.0054 29.8414 40.0164 30.2649 40.04 30.5489L40.9086 30.4765C40.8881 30.2305 40.877 29.8371 40.877 29.2872H40.0054ZM40.8146 30.7849C41.5 29.9281 42.1536 29.3452 42.7704 29.0069L42.3513 28.2427C41.5992 28.6552 40.8617 29.3308 40.134 30.2404L40.8146 30.7849ZM42.7797 29.0017C43.3994 28.6419 44.0528 28.4645 44.7468 28.4645V27.5929C43.8952 27.5929 43.0913 27.8129 42.342 28.248L42.7797 29.0017ZM44.7468 28.4645C45.846 28.4645 46.7247 28.8969 47.4167 29.7866L48.1047 29.2515C47.2511 28.154 46.1205 27.5929 44.7468 27.5929V28.4645ZM47.4204 29.7913C48.1385 30.689 48.5172 31.8875 48.5172 33.4272H49.3888C49.3888 31.7433 48.9726 30.3364 48.101 29.2468L47.4204 29.7913ZM48.5172 33.4272C48.5172 34.5499 48.3373 35.6396 47.9774 36.6983L48.8026 36.9789C49.1933 35.8295 49.3888 34.645 49.3888 33.4272H48.5172ZM47.9774 36.6983C47.6157 37.7621 47.1169 38.727 46.4816 39.5952L47.185 40.1098C47.8746 39.1675 48.4135 38.1231 48.8026 36.9789L47.9774 36.6983ZM46.7136 40.2715C47.197 40.4096 47.6269 40.487 47.9925 40.487V39.6154C47.7399 39.6154 47.397 39.5603 46.953 39.4335L46.7136 40.2715ZM47.9925 40.487C48.8359 40.487 49.6249 40.1777 50.3513 39.5966L49.8068 38.916C49.2084 39.3948 48.6064 39.6154 47.9925 39.6154V40.487ZM50.3513 39.5966C51.048 39.0392 51.9202 38.1295 52.9631 36.8869L52.2955 36.3266C51.2629 37.557 50.4349 38.4136 49.8068 38.916L50.3513 39.5966ZM52.9602 36.8904C53.163 36.6537 53.3482 36.5789 53.5235 36.5789V35.7073C53.0365 35.7073 52.6255 35.9416 52.2984 36.3231L52.9602 36.8904ZM40.5026 40.9403C41.3941 40.7422 42.1957 40.2614 42.9071 39.5263L42.2808 38.9202C41.6674 39.554 41.0118 39.9343 40.3135 40.0895L40.5026 40.9403ZM42.907 39.5264C43.6358 38.7741 44.2065 37.8623 44.6227 36.7987L43.811 36.4811C43.4324 37.4488 42.9211 38.2592 42.281 38.92L42.907 39.5264ZM44.6238 36.7957C45.0406 35.7075 45.2488 34.5727 45.2488 33.3941H44.3772C44.3772 34.4676 44.188 35.4967 43.8099 36.484L44.6238 36.7957ZM45.2488 33.3941C45.2488 32.6852 45.1089 32.0728 44.7559 31.6315L44.0753 32.176C44.2521 32.397 44.3772 32.7783 44.3772 33.3941H45.2488ZM44.7642 31.6422C44.4169 31.1792 43.9345 30.938 43.3557 30.938V31.8096C43.6602 31.8096 43.8843 31.9216 44.0669 32.1652L44.7642 31.6422ZM43.3557 30.938C42.8052 30.938 42.2669 31.2255 41.7525 31.6749C41.2319 32.1296 40.6859 32.7935 40.1124 33.6481L40.8362 34.1337C41.3888 33.3102 41.886 32.7156 42.3259 32.3313C42.772 31.9416 43.1113 31.8096 43.3557 31.8096V30.938ZM40.0386 33.881C40.0164 34.8576 40.0054 36.2857 40.0054 38.1634H40.877C40.877 36.2875 40.888 34.8673 40.91 33.9008L40.0386 33.881ZM40.0054 38.1634C40.0054 39.1772 39.9943 39.9542 39.9726 40.4975L40.8435 40.5323C40.8659 39.9716 40.877 39.1809 40.877 38.1634H40.0054ZM34.0822 55.8546C34.4078 55.8546 34.6617 55.6726 34.8445 55.4547C35.0259 55.2384 35.1771 54.943 35.3091 54.5971C35.5743 53.9016 35.8033 52.8878 36.0034 51.5764L35.1417 51.445C34.9443 52.739 34.7263 53.6793 34.4947 54.2865C34.3782 54.592 34.2686 54.7851 34.1768 54.8945C34.0864 55.0023 34.0546 54.9831 34.0822 54.9831V55.8546ZM36.0033 51.577C36.4044 48.9696 36.6592 45.7265 36.7699 41.8521L35.8987 41.8272C35.7886 45.6809 35.5356 48.8852 35.1418 51.4444L36.0033 51.577ZM35.934 41.6675C34.9778 43.8912 34.22 46.0189 33.6619 48.0502L34.5024 48.281C35.0483 46.2938 35.792 44.2041 36.7347 42.0118L35.934 41.6675ZM33.6619 48.0502C33.1044 50.0796 32.8184 51.8103 32.8184 53.2329H33.6899C33.6899 51.9177 33.9559 50.2701 34.5024 48.281L33.6619 48.0502ZM32.8184 53.2329C32.8184 53.9646 32.908 54.5808 33.1248 55.0414L33.9134 54.6703C33.7769 54.3802 33.6899 53.9144 33.6899 53.2329H32.8184ZM33.1161 55.0217C33.2787 55.4165 33.5689 55.8546 34.0822 55.8546V54.9831C34.1101 54.9831 34.1137 54.9997 34.0839 54.97C34.0465 54.9325 33.9879 54.8497 33.9221 54.6899L33.1161 55.0217ZM54.0351 25.2797L53.7345 25.5954L53.7427 25.6029L54.0351 25.2797ZM54.2338 21.5372L54.5164 21.8689L54.5174 21.8681L54.2338 21.5372ZM58.5063 21.3385L58.2377 21.6816L58.5063 21.3385ZM58.4069 25.1473L58.6957 25.4737L58.7025 25.4675L58.4069 25.1473ZM52.7103 42.1709L52.3416 42.4033L52.3453 42.409L52.7103 42.1709ZM52.1141 34.3215L51.6844 34.2488L51.6836 34.2538L52.1141 34.3215ZM53.1077 29.9496L53.5257 30.073L53.5272 30.0676L53.1077 29.9496ZM53.9026 28.4924L53.6304 28.1521L53.9026 28.4924ZM56.5522 33.0629L56.978 33.1558L56.9788 33.152L56.5522 33.0629ZM58.4069 39.2232L58.1108 38.9035L58.4069 39.2232ZM60.7916 36.6067L60.4607 36.3231L60.4568 36.3278L60.7916 36.6067ZM62.3482 36.5405L61.9718 36.7601L61.9783 36.7714L61.9856 36.7822L62.3482 36.5405ZM61.9839 39.6869L61.6539 39.402L61.6466 39.4109L61.9839 39.6869ZM56.1216 25.4732C55.2513 25.4732 54.6799 25.2754 54.3275 24.9566L53.7427 25.6029C54.3177 26.1231 55.1373 26.3448 56.1216 26.3448V25.4732ZM54.3356 24.9642C53.9758 24.6215 53.7754 24.1382 53.7754 23.4581H52.9038C52.9038 24.3236 53.167 25.0548 53.7346 25.5953L54.3356 24.9642ZM53.7754 23.4581C53.7754 22.815 54.0159 22.2952 54.5164 21.8689L53.9512 21.2054C53.2594 21.7948 52.9038 22.5557 52.9038 23.4581H53.7754ZM54.5174 21.8681C55.0477 21.4135 55.7054 21.1781 56.5191 21.1781V20.3065C55.5222 20.3065 54.6564 20.601 53.9502 21.2063L54.5174 21.8681ZM56.5191 21.1781C57.2651 21.1781 57.825 21.3587 58.2377 21.6816L58.7749 20.9953C58.1719 20.5234 57.407 20.3065 56.5191 20.3065V21.1781ZM58.2377 21.6816C58.6253 21.985 58.8323 22.4132 58.8323 23.0276H59.7038C59.7038 22.1847 59.4029 21.4868 58.7749 20.9953L58.2377 21.6816ZM58.8323 23.0276C58.8323 23.8067 58.5839 24.3908 58.1113 24.827L58.7025 25.4675C59.3781 24.8439 59.7038 24.0149 59.7038 23.0276H58.8323ZM58.1182 24.8209C57.6416 25.2425 56.9911 25.4732 56.1216 25.4732V26.3448C57.151 26.3448 58.0241 26.0677 58.6957 25.4737L58.1182 24.8209ZM55.8567 43.2586C54.5374 43.2586 53.6415 42.801 53.0753 41.9328L52.3453 42.409C53.1039 43.5721 54.3055 44.1302 55.8567 44.1302V43.2586ZM53.0789 41.9385C52.4966 41.0148 52.1856 39.7574 52.1856 38.1303H51.314C51.314 39.8592 51.6433 41.2956 52.3417 42.4033L53.0789 41.9385ZM52.1856 38.1303C52.1856 37.1683 52.3035 35.9235 52.5446 34.3891L51.6836 34.2538C51.439 35.8106 51.314 37.105 51.314 38.1303H52.1856ZM52.5438 34.3941C52.8063 32.8413 53.1338 31.4012 53.5257 30.073L52.6898 29.8263C52.2868 31.1918 51.9519 32.6662 51.6844 34.2488L52.5438 34.3941ZM53.5272 30.0676C53.7174 29.3917 53.9501 29.0124 54.1748 28.8327L53.6304 28.1521C53.1927 28.5022 52.8956 29.0945 52.6882 29.8317L53.5272 30.0676ZM54.1748 28.8327C54.3903 28.6603 54.7984 28.5307 55.4924 28.5307V27.6591C54.7291 27.6591 54.0774 27.7945 53.6304 28.1521L54.1748 28.8327ZM55.4924 28.5307C56.0208 28.5307 56.3408 28.6213 56.5175 28.739C56.6629 28.836 56.7457 28.9726 56.7457 29.221H57.6173C57.6173 28.7187 57.4185 28.2922 57.0009 28.0138C56.6145 27.7563 56.0901 27.6591 55.4924 27.6591V28.5307ZM56.7457 29.221C56.7457 29.7184 56.5482 30.9501 56.1256 32.9738L56.9788 33.152C57.3953 31.1572 57.6173 29.8276 57.6173 29.221H56.7457ZM56.1264 32.97C55.5979 35.3922 55.3215 37.0823 55.3215 37.9978H56.1931C56.1931 37.191 56.4466 35.5912 56.978 33.1558L56.1264 32.97ZM55.3215 37.9978C55.3215 38.6878 55.4117 39.2746 55.6325 39.7162L56.4121 39.3264C56.2796 39.0614 56.1931 38.6326 56.1931 37.9978H55.3215ZM55.6325 39.7162C55.7529 39.9569 55.9254 40.1569 56.1562 40.2936C56.3853 40.4295 56.6451 40.487 56.9165 40.487V39.6154C56.7685 39.6154 56.6694 39.5847 56.6005 39.5438C56.5331 39.5039 56.4683 39.439 56.4121 39.3264L55.6325 39.7162ZM56.9165 40.487C57.4927 40.487 58.0977 40.1034 58.703 39.543L58.1108 38.9035C57.5238 39.447 57.1352 39.6154 56.9165 39.6154V40.487ZM58.703 39.543C59.3202 38.9715 60.1294 38.082 61.1263 36.8857L60.4568 36.3278C59.4665 37.5161 58.686 38.3709 58.1108 38.9035L58.703 39.543ZM61.1224 36.8904C61.3253 36.6537 61.5105 36.5789 61.6858 36.5789V35.7073C61.1987 35.7073 60.7878 35.9416 60.4607 36.3231L61.1224 36.8904ZM61.6858 36.5789C61.8053 36.5789 61.8888 36.6178 61.9718 36.7601L62.7246 36.3209C62.4985 35.9333 62.1404 35.7073 61.6858 35.7073V36.5789ZM61.9856 36.7822C62.0974 36.9499 62.1774 37.2186 62.1774 37.6335H63.0489C63.0489 37.121 62.9523 36.661 62.7108 36.2988L61.9856 36.7822ZM62.1774 37.6335C62.1774 38.4514 61.9833 39.0209 61.6541 39.4021L62.3137 39.9717C62.8235 39.3814 63.0489 38.5819 63.0489 37.6335H62.1774ZM61.6466 39.4109C59.4799 42.0591 57.5499 43.2586 55.8567 43.2586V44.1302C57.9612 44.1302 60.116 42.6581 62.3212 39.9629L61.6466 39.4109ZM75.3674 36.5405L74.991 36.7601L74.9976 36.7714L75.0048 36.7822L75.3674 36.5405ZM75.0031 39.6869L74.6731 39.4019L74.6647 39.4123L75.0031 39.6869ZM71.8898 42.5683L71.6481 42.2057L71.8898 42.5683ZM61.3577 31.2413L61.7925 31.2703L61.8235 30.8055H61.3577V31.2413ZM58.7081 30.877L58.3857 31.1701L58.3926 31.1778L58.4 31.1851L58.7081 30.877ZM61.7551 27.8631V28.2989H62.1288L62.1858 27.9296L61.7551 27.8631ZM63.4774 21.206L63.0706 21.0495L63.4774 21.206ZM66.2594 16.4036L65.9397 16.1075L65.9367 16.1107L66.2594 16.4036ZM71.9892 15.8406L72.3548 15.6034L71.9892 15.8406ZM68.4785 27.8631L68.1897 27.5367L67.3281 28.2989H68.4785V27.8631ZM65.3983 31.2413V30.8055H64.9796L64.9629 31.2239L65.3983 31.2413ZM66.127 38.6602L65.7485 38.8764L65.7525 38.8831L66.127 38.6602ZM71.2274 39.1901L71.4971 39.5324L71.2274 39.1901ZM73.8108 36.6067L74.1403 36.8919L74.1417 36.8904L73.8108 36.6067ZM67.783 19.0532L67.3932 18.8583L67.3911 18.8625L67.783 19.0532ZM66.6238 22.4977L66.2013 22.3905L66.2002 22.395L66.6238 22.4977ZM65.7295 27.3663L65.2977 27.3076L65.1426 28.4496L66.0145 27.696L65.7295 27.3663ZM68.6441 23.5906L68.2495 23.4056L68.2482 23.4084L68.6441 23.5906ZM74.705 36.5789C74.8245 36.5789 74.908 36.6178 74.991 36.7601L75.7439 36.3209C75.5177 35.9333 75.1596 35.7073 74.705 35.7073V36.5789ZM75.0048 36.7822C75.1166 36.9499 75.1966 37.2186 75.1966 37.6335H76.0682C76.0682 37.121 75.9715 36.661 75.73 36.2988L75.0048 36.7822ZM75.1966 37.6335C75.1966 38.4514 75.0025 39.0209 74.6733 39.4021L75.3329 39.9717C75.8427 39.3814 76.0682 38.5819 76.0682 37.6335H75.1966ZM74.6647 39.4123C73.7398 40.5523 72.7338 41.4819 71.6481 42.2057L72.1316 42.9309C73.298 42.1533 74.3676 41.1619 75.3415 39.9615L74.6647 39.4123ZM71.6481 42.2057C70.5992 42.905 69.393 43.2586 68.0148 43.2586V44.1302C69.5512 44.1302 70.9284 43.7331 72.1316 42.9309L71.6481 42.2057ZM68.0148 43.2586C65.878 43.2586 64.3332 42.5153 63.3027 41.0656C62.2527 39.5885 61.6941 37.319 61.6941 34.189H60.8226C60.8226 37.3959 61.39 39.8792 62.5923 41.5705C63.8139 43.2892 65.6473 44.1302 68.0148 44.1302V43.2586ZM61.6941 34.189C61.6941 33.2274 61.7269 32.2545 61.7925 31.2703L60.9229 31.2123C60.856 32.2153 60.8226 33.2076 60.8226 34.189H61.6941ZM61.3577 30.8055H60.066V31.6771H61.3577V30.8055ZM60.066 30.8055C59.4244 30.8055 59.1286 30.6812 59.0163 30.5688L58.4 31.1851C58.7733 31.5585 59.3829 31.6771 60.066 31.6771V30.8055ZM59.0306 30.5839C58.9162 30.458 58.8127 30.2023 58.8127 29.7178H57.9411C57.9411 30.2932 58.0585 30.8102 58.3857 31.1701L59.0306 30.5839ZM58.8127 29.7178C58.8127 29.1465 58.9294 28.7987 59.0892 28.5997C59.2344 28.419 59.466 28.2989 59.8673 28.2989V27.4273C59.275 27.4273 58.7614 27.6163 58.4098 28.0538C58.0729 28.4731 57.9411 29.0527 57.9411 29.7178H58.8127ZM59.8673 28.2989H61.7551V27.4273H59.8673V28.2989ZM62.1858 27.9296C62.5571 25.5273 63.1239 23.3389 63.8841 21.3624L63.0706 21.0495C62.2852 23.0916 61.7039 25.3412 61.3245 27.7965L62.1858 27.9296ZM63.8841 21.3624C64.6437 19.3875 65.5464 17.8379 66.5822 16.6964L65.9367 16.1107C64.8087 17.3539 63.8566 19.0059 63.0706 21.0495L63.8841 21.3624ZM66.5792 16.6997C67.6261 15.569 68.699 15.0509 69.8033 15.0509V14.1793C68.3904 14.1793 67.1008 14.8536 65.9397 16.1075L66.5792 16.6997ZM69.8033 15.0509C70.5743 15.0509 71.1692 15.3772 71.6236 16.0777L72.3548 15.6034C71.7494 14.67 70.887 14.1793 69.8033 14.1793V15.0509ZM71.6236 16.0777C72.0968 16.8072 72.3483 17.7458 72.3483 18.9207H73.2199C73.2199 17.6226 72.9414 16.5078 72.3548 15.6034L71.6236 16.0777ZM72.3483 18.9207C72.3483 22.2025 70.9791 25.0692 68.1897 27.5367L68.7672 28.1895C71.7186 25.5786 73.2199 22.4837 73.2199 18.9207H72.3483ZM68.4785 28.2989H72.1879V27.4273H68.4785V28.2989ZM72.1879 28.2989C72.4939 28.2989 72.6068 28.3684 72.6415 28.4031L73.2578 27.7868C72.9834 27.5124 72.5885 27.4273 72.1879 27.4273V28.2989ZM72.6415 28.4031C72.6659 28.4274 72.7457 28.558 72.7457 28.956H73.6173C73.6173 28.515 73.5426 28.0716 73.2578 27.7868L72.6415 28.4031ZM72.7457 28.956C72.7457 29.5738 72.5064 30.0003 72.0188 30.2981C71.4962 30.6172 70.6563 30.8055 69.439 30.8055V31.6771C70.7166 31.6771 71.748 31.4846 72.473 31.0419C73.2329 30.5779 73.6173 29.8619 73.6173 28.956H72.7457ZM69.439 30.8055H65.3983V31.6771H69.439V30.8055ZM64.9629 31.2239C64.9186 32.33 64.8963 33.1978 64.8963 33.8247H65.7679C65.7679 33.2151 65.7897 32.3607 65.8338 31.2587L64.9629 31.2239ZM64.8963 33.8247C64.8963 36.1282 65.1575 37.842 65.7486 38.8764L66.5053 38.444C66.0366 37.6237 65.7679 36.1137 65.7679 33.8247H64.8963ZM65.7525 38.8831C66.3908 39.9554 67.4021 40.487 68.7103 40.487V39.6154C67.678 39.6154 66.9672 39.2197 66.5014 38.4373L65.7525 38.8831ZM68.7103 40.487C69.7551 40.487 70.6897 40.1686 71.4971 39.5324L70.9577 38.8478C70.3079 39.3598 69.5644 39.6154 68.7103 39.6154V40.487ZM71.4971 39.5324C72.2568 38.9339 73.1385 38.0496 74.1403 36.8919L73.4813 36.3216C72.4959 37.4602 71.6554 38.2981 70.9577 38.8478L71.4971 39.5324ZM74.1417 36.8904C74.3445 36.6537 74.5297 36.5789 74.705 36.5789V35.7073C74.2179 35.7073 73.807 35.9416 73.4799 36.3231L74.1417 36.8904ZM68.909 17.3588C68.5557 17.3588 68.2695 17.5782 68.0544 17.8187C67.8294 18.0701 67.6104 18.4239 67.3932 18.8583L68.1727 19.2481C68.375 18.8435 68.5535 18.568 68.7039 18.3999C68.8641 18.2208 68.9312 18.2304 68.909 18.2304V17.3588ZM67.3911 18.8625C66.9749 19.7181 66.5798 20.8989 66.2014 22.3905L67.0462 22.6048C67.4184 21.1377 67.7962 20.0222 68.1748 19.2438L67.3911 18.8625ZM66.2002 22.395C65.8428 23.8694 65.5422 25.5072 65.2977 27.3076L66.1614 27.4249C66.4026 25.6484 66.6982 24.0405 67.0473 22.6003L66.2002 22.395ZM66.0145 27.696C67.3584 26.5343 68.3706 25.227 69.0399 23.7728L68.2482 23.4084C67.637 24.7363 66.7061 25.9461 65.4445 27.0366L66.0145 27.696ZM69.0387 23.7756C69.719 22.3242 70.0735 20.9794 70.0735 19.7487H69.2019C69.2019 20.8143 68.894 22.0308 68.2495 23.4057L69.0387 23.7756ZM70.0735 19.7487C70.0735 19.0826 70.013 18.531 69.8638 18.1309C69.7882 17.928 69.6796 17.7361 69.5183 17.5919C69.3478 17.4395 69.1383 17.3588 68.909 17.3588V18.2304C68.9226 18.2304 68.9257 18.2312 68.9374 18.2417C68.9582 18.2603 69.0014 18.3126 69.0472 18.4354C69.1409 18.6867 69.2019 19.1121 69.2019 19.7487H70.0735ZM88.3696 36.5405L87.9932 36.7601L87.9997 36.7714L88.007 36.7822L88.3696 36.5405ZM88.0053 39.6869L87.6754 39.402L87.6686 39.4101L88.0053 39.6869ZM84.5277 42.4359L84.3151 42.0554L84.3127 42.0568L84.5277 42.4359ZM74.3599 41.8066L74.6653 41.4958L74.3599 41.8066ZM73.3994 32.4005L73.7905 32.5928L73.7917 32.5902L73.3994 32.4005ZM76.049 29.2541L75.8056 28.8926L75.8024 28.8948L76.049 29.2541ZM83.0042 29.2541L82.696 29.5623L82.7005 29.5667L83.0042 29.2541ZM82.5074 36.2755L82.1992 35.9674L82.5074 36.2755ZM76.9763 38.8589L76.8723 38.4357L76.3236 38.5706L76.5934 39.067L76.9763 38.8589ZM83.501 39.3557L83.7092 39.7385L83.7115 39.7373L83.501 39.3557ZM86.8129 36.6067L86.482 36.3231L86.4765 36.3297L86.8129 36.6067ZM77.2744 32.7648L76.9014 32.5393L76.8977 32.5458L77.2744 32.7648ZM76.4464 36.2755H76.0106V36.8268L76.547 36.6996L76.4464 36.2755ZM79.5266 34.8845L79.2495 34.5481L79.5266 34.8845ZM80.2883 31.7381L79.9535 32.0171L79.9662 32.0323L79.9802 32.0463L80.2883 31.7381ZM87.7072 36.5789C87.8267 36.5789 87.9102 36.6178 87.9932 36.7601L88.746 36.3209C88.5199 35.9333 88.1618 35.7073 87.7072 35.7073V36.5789ZM88.007 36.7822C88.1188 36.9499 88.1988 37.2186 88.1988 37.6335H89.0703C89.0703 37.121 88.9737 36.661 88.7322 36.2988L88.007 36.7822ZM88.1988 37.6335C88.1988 38.4514 88.0047 39.0209 87.6754 39.4021L88.3351 39.9717C88.8449 39.3814 89.0703 38.5819 89.0703 37.6335H88.1988ZM87.6686 39.4101C86.8957 40.3502 85.7841 41.2345 84.3151 42.0554L84.7403 42.8163C86.2741 41.9591 87.4809 41.0108 88.3419 39.9637L87.6686 39.4101ZM84.3127 42.0568C82.8989 42.8587 81.3832 43.2586 79.7584 43.2586V44.1302C81.534 44.1302 83.1978 43.6911 84.7427 42.8149L84.3127 42.0568ZM79.7584 43.2586C77.5196 43.2586 75.8427 42.6528 74.6653 41.4958L74.0544 42.1174C75.4383 43.4774 77.3604 44.1302 79.7584 44.1302V43.2586ZM74.6653 41.4958C73.4856 40.3364 72.8747 38.736 72.8747 36.6399H72.0031C72.0031 38.9155 72.6728 40.7596 74.0544 42.1174L74.6653 41.4958ZM72.8747 36.6399C72.8747 35.1796 73.181 33.8327 73.7905 32.5928L73.0083 32.2083C72.3371 33.5738 72.0031 35.0531 72.0031 36.6399H72.8747ZM73.7917 32.5902C74.4017 31.3282 75.2368 30.34 76.2956 29.6134L75.8024 28.8948C74.609 29.7138 73.6777 30.8233 73.007 32.2109L73.7917 32.5902ZM76.2923 29.6156C77.3658 28.8931 78.5721 28.5307 79.924 28.5307V27.6591C78.4055 27.6591 77.0285 28.0695 75.8056 28.8926L76.2923 29.6156ZM79.924 28.5307C81.1105 28.5307 82.0189 28.8852 82.696 29.5623L83.3123 28.946C82.4438 28.0775 81.2988 27.6591 79.924 27.6591V28.5307ZM82.7005 29.5667C83.3716 30.2186 83.7276 31.1229 83.7276 32.3343H84.5991C84.5991 30.9402 84.1823 29.7911 83.3078 28.9415L82.7005 29.5667ZM83.7276 32.3343C83.7276 33.739 83.2237 34.9429 82.1992 35.9674L82.8155 36.5837C83.999 35.4002 84.5991 33.9765 84.5991 32.3343H83.7276ZM82.1992 35.9674C81.2016 36.965 79.4512 37.8019 76.8723 38.4357L77.0803 39.2821C79.7123 38.6353 81.6493 37.7499 82.8155 36.5837L82.1992 35.9674ZM76.5934 39.067C77.2473 40.2701 78.4793 40.8182 80.1227 40.8182V39.9466C78.6749 39.9466 77.8094 39.4791 77.3592 38.6508L76.5934 39.067ZM80.1227 40.8182C81.2141 40.8182 82.4131 40.4434 83.7092 39.7385L83.2927 38.9729C82.0717 39.637 81.0185 39.9466 80.1227 39.9466V40.8182ZM83.7115 39.7373C85.0402 39.0042 86.1869 38.0525 87.1493 36.8838L86.4765 36.3297C85.5843 37.4132 84.523 38.2941 83.2904 38.9741L83.7115 39.7373ZM87.1438 36.8904C87.3467 36.6537 87.5319 36.5789 87.7072 36.5789V35.7073C87.2201 35.7073 86.8091 35.9416 86.4821 36.3231L87.1438 36.8904ZM79.361 30.9049C78.3389 30.9049 77.5228 31.5118 76.9015 32.5393L77.6473 32.9903C78.1742 32.119 78.7492 31.7765 79.361 31.7765V30.9049ZM76.8977 32.5458C76.2991 33.5753 76.0106 34.8028 76.0106 36.2093H76.8822C76.8822 34.922 77.1457 33.8533 77.6511 32.9839L76.8977 32.5458ZM76.0106 36.2093V36.2755H76.8822V36.2093H76.0106ZM76.547 36.6996C77.8914 36.3805 78.986 35.8943 79.8036 35.2209L79.2495 34.5481C78.5657 35.1112 77.6068 35.5523 76.3458 35.8515L76.547 36.6996ZM79.8036 35.2209C80.6336 34.5374 81.0884 33.7041 81.0884 32.7317H80.2169C80.2169 33.3933 79.9209 33.9952 79.2495 34.5481L79.8036 35.2209ZM81.0884 32.7317C81.0884 32.2238 80.9385 31.772 80.5965 31.43L79.9802 32.0463C80.1239 32.19 80.2169 32.4005 80.2169 32.7317H81.0884ZM80.6231 31.4591C80.3064 31.0791 79.8657 30.9049 79.361 30.9049V31.7765C79.6511 31.7765 79.8287 31.8673 79.9535 32.0171L80.6231 31.4591ZM100.544 33.1623L100.226 33.4603L100.235 33.4706L100.246 33.4802L100.544 33.1623ZM100.875 35.3482L101.275 35.5212L101.28 35.51L100.875 35.3482ZM99.3845 37.4016L99.6691 37.7317L99.3845 37.4016ZM95.6751 37.5672L95.3591 37.8675L95.367 37.8754L95.6751 37.5672ZM95.1121 34.4208L94.6796 34.3668L94.6787 34.3741L94.6781 34.3814L95.1121 34.4208ZM95.0458 33.2948L94.6972 33.5562L94.7158 33.581L94.7377 33.6029L95.0458 33.2948ZM93.5223 34.2883L93.8748 34.5447L93.8783 34.5397L93.5223 34.2883ZM91.9326 37.2029L91.5331 37.0286L91.9326 37.2029ZM90.6409 41.0448L90.2177 40.9407L90.2161 40.9475L90.6409 41.0448ZM89.8129 43.1645L89.4849 42.8775L89.8129 43.1645ZM86.5009 42.3696L86.0928 42.5227L86.0963 42.5315L86.5009 42.3696ZM87.2295 29.9496L87.645 30.081L87.6457 30.0788L87.2295 29.9496ZM88.19 28.5586L88.4275 28.924L88.4317 28.9212L88.19 28.5586ZM90.8065 31.2744L90.3855 31.1617L90.3837 31.1687L90.8065 31.2744ZM89.9454 36.0437L89.5114 36.0043L90.3522 36.1998L89.9454 36.0437ZM92.3962 31.4069L92.0492 31.1434L92.3962 31.4069ZM98.8546 28.658L98.5279 28.9463L98.5369 28.9565L98.5465 28.9661L98.8546 28.658ZM99.0202 32.6324L98.5935 32.5438L98.4847 33.0681H99.0202V32.6324ZM99.3183 33.0681C99.684 33.0681 99.9773 33.1952 100.226 33.4603L100.862 32.8642C100.448 32.4228 99.9241 32.1966 99.3183 32.1966V33.0681ZM100.246 33.4802C100.506 33.7246 100.638 34.0268 100.638 34.4208H101.509C101.509 33.7991 101.288 33.2623 100.842 32.8443L100.246 33.4802ZM100.638 34.4208C100.638 34.6408 100.587 34.8946 100.47 35.1863L101.28 35.51C101.428 35.1394 101.509 34.775 101.509 34.4208H100.638ZM100.475 35.1752C100.146 35.935 99.6878 36.5648 99.1 37.0716L99.6691 37.7317C100.362 37.1344 100.897 36.3953 101.275 35.5212L100.475 35.1752ZM99.1 37.0716C98.5308 37.5622 97.9231 37.7938 97.2649 37.7938V38.6654C98.1522 38.6654 98.9577 38.345 99.6691 37.7317L99.1 37.0716ZM97.2649 37.7938C96.7635 37.7938 96.3441 37.6199 95.9833 37.2591L95.367 37.8754C95.8894 38.3978 96.5297 38.6654 97.2649 38.6654V37.7938ZM95.9911 37.2671C95.6655 36.9243 95.4816 36.4451 95.4816 35.7787H94.61C94.61 36.6138 94.8457 37.3269 95.3592 37.8674L95.9911 37.2671ZM95.4816 35.7787C95.4816 35.3743 95.5029 34.935 95.5461 34.4603L94.6781 34.3814C94.6329 34.8782 94.61 35.3441 94.61 35.7787H95.4816ZM95.5445 34.4749C95.5884 34.1239 95.6141 33.8555 95.6141 33.6922H94.7425C94.7425 33.7938 94.7241 34.0112 94.6796 34.3668L95.5445 34.4749ZM95.6141 33.6922C95.6141 33.4484 95.5528 33.1855 95.354 32.9866L94.7377 33.6029C94.7286 33.5938 94.7285 33.5884 94.7318 33.5982C94.7357 33.61 94.7425 33.6389 94.7425 33.6922H95.6141ZM95.3945 33.0333C95.2459 32.8352 95.0284 32.7265 94.7809 32.7265V33.5981C94.7765 33.5981 94.7582 33.5968 94.735 33.5852C94.7118 33.5736 94.6998 33.5597 94.6972 33.5562L95.3945 33.0333ZM94.7809 32.7265C94.4603 32.7265 94.1748 32.9123 93.9438 33.119C93.6991 33.338 93.4399 33.6494 93.1663 34.037L93.8783 34.5397C94.1346 34.1766 94.3502 33.9249 94.525 33.7686C94.7135 33.5999 94.7923 33.5981 94.7809 33.5981V32.7265ZM93.1699 34.032C92.6149 34.7951 92.0704 35.7974 91.5331 37.0286L92.332 37.3772C92.8546 36.1796 93.3699 35.2389 93.8748 34.5447L93.1699 34.032ZM91.5331 37.0286C90.9929 38.2667 90.5545 39.571 90.2177 40.9408L91.0641 41.1489C91.3896 39.8249 91.8124 38.5679 92.332 37.3772L91.5331 37.0286ZM90.2161 40.9475C89.9734 42.0067 89.7151 42.6145 89.4849 42.8775L90.1408 43.4515C90.5289 43.008 90.8226 42.2026 91.0657 41.1422L90.2161 40.9475ZM89.4849 42.8775C89.293 43.0969 88.9342 43.2586 88.2894 43.2586V44.1302C89.0576 44.1302 89.7145 43.9387 90.1408 43.4515L89.4849 42.8775ZM88.2894 43.2586C87.9505 43.2586 87.6857 43.1711 87.4724 43.013C87.2552 42.8521 87.0605 42.5952 86.9055 42.2078L86.0963 42.5315C86.2946 43.0272 86.5746 43.4327 86.9536 43.7134C87.3364 43.9969 87.7892 44.1302 88.2894 44.1302V43.2586ZM86.9089 42.2166C86.6068 41.411 86.4399 40.0645 86.4399 38.1303H85.5683C85.5683 40.0821 85.7326 41.5618 86.0928 42.5226L86.9089 42.2166ZM86.4399 38.1303C86.4399 35.3018 86.8423 32.6194 87.645 30.081L86.814 29.8182C85.9828 32.4466 85.5683 35.2179 85.5683 38.1303H86.4399ZM87.6457 30.0788C87.8227 29.5086 88.0923 29.1418 88.4275 28.924L87.9525 28.1932C87.4045 28.5494 87.0338 29.1101 86.8133 29.8205L87.6457 30.0788ZM88.4317 28.9212C88.7977 28.6772 89.3421 28.5307 90.111 28.5307V27.6591C89.2459 27.6591 88.5097 27.8217 87.9483 28.196L88.4317 28.9212ZM90.111 28.5307C90.5439 28.5307 90.7431 28.5899 90.8074 28.6301L91.2693 27.891C90.9803 27.7104 90.5612 27.6591 90.111 27.6591V28.5307ZM90.8074 28.6301C90.8124 28.6332 90.8227 28.6396 90.8354 28.6698C90.8505 28.7056 90.8675 28.7738 90.8675 28.8898H91.7391C91.7391 28.5087 91.628 28.1151 91.2693 27.891L90.8074 28.6301ZM90.8675 28.8898C90.8675 29.0176 90.8349 29.2661 90.7525 29.662C90.672 30.0483 90.5501 30.5474 90.3855 31.1617L91.2274 31.3872C91.3941 30.765 91.5206 30.2484 91.6057 29.8398C91.6888 29.4409 91.7391 29.1153 91.7391 28.8898H90.8675ZM90.3837 31.1687C90.1618 32.0565 89.9834 32.8363 89.8492 33.5074L90.7039 33.6783C90.8346 33.0245 91.0096 32.2588 91.2293 31.3801L90.3837 31.1687ZM89.8492 33.5074C89.7127 34.19 89.6005 35.0234 89.5114 36.0043L90.3794 36.0832C90.4668 35.121 90.5755 34.3205 90.7039 33.6783L89.8492 33.5074ZM90.3522 36.1998C91.071 34.3266 91.87 32.8206 92.7433 31.6704L92.0492 31.1434C91.1119 32.3779 90.277 33.963 89.5385 35.8876L90.3522 36.1998ZM92.7433 31.6704C93.6298 30.5029 94.4728 29.7005 95.2672 29.2321L94.8245 28.4813C93.8966 29.0285 92.9733 29.9263 92.0492 31.1434L92.7433 31.6704ZM95.2672 29.2321C96.0876 28.7482 96.7944 28.5307 97.3973 28.5307V27.6591C96.5871 27.6591 95.7263 27.9495 94.8245 28.4813L95.2672 29.2321ZM97.3973 28.5307C97.95 28.5307 98.3012 28.6895 98.5279 28.9463L99.1814 28.3696C98.7456 27.8758 98.1254 27.6591 97.3973 27.6591V28.5307ZM98.5465 28.9661C98.7892 29.2088 98.9488 29.6083 98.9488 30.2477H99.8203C99.8203 29.474 99.6266 28.8136 99.1628 28.3498L98.5465 28.9661ZM98.9488 30.2477C98.9488 30.6156 98.8376 31.3678 98.5935 32.5438L99.4469 32.7209C99.6886 31.5565 99.8203 30.7189 99.8203 30.2477H98.9488ZM99.0202 33.0681H99.3183V32.1966H99.0202V33.0681Z" fill="black" mask="url(#path-3-outside-1_2_441)"/>
<path d="M23.4539 21.2158C23.4539 21.8782 23.3104 22.375 23.0233 22.7062C22.7584 23.0374 22.3168 23.203 21.6985 23.203C21.6544 23.6666 21.555 24.4725 21.4005 25.6207C21.1797 27.1663 21.0582 28.0274 21.0361 28.2041C19.071 42.8431 14.9752 50.1626 8.74865 50.1626C6.91601 50.1626 5.48081 49.6437 4.44306 48.6059C3.42738 47.5682 2.91954 46.2655 2.91954 44.6978C2.91954 41.8936 4.11186 39.4207 6.49649 37.2789C8.88113 35.1151 12.0165 33.3266 15.9026 31.9135C16.1454 30.3458 16.3331 28.9437 16.4656 27.7073L17.0617 22.7062C15.7369 22.5737 14.5005 22.5074 13.3523 22.5074C10.2832 22.5074 8.02001 22.8055 6.56273 23.4017C5.10546 23.9978 4.37682 24.9693 4.37682 26.3162C4.37682 26.9786 4.59762 27.6962 5.03922 28.469C5.1717 28.6898 5.23794 28.9217 5.23794 29.1645C5.23794 29.6282 4.99506 30.0477 4.5093 30.4231C4.04562 30.7764 3.53778 30.953 2.98578 30.953C2.27922 30.953 1.73826 30.6549 1.3629 30.0588C0.744666 29.0431 0.435547 27.8618 0.435547 26.5149C0.435547 21.2158 5.07234 18.5662 14.3459 18.5662C17.0397 18.5662 19.4464 18.8311 21.5661 19.361C22.8246 19.6702 23.4539 20.2884 23.4539 21.2158ZM9.17921 46.6187C10.2611 46.6187 11.343 45.8018 12.425 44.1679C13.5069 42.5339 14.4563 39.6746 15.2733 35.5898C9.88576 37.9524 7.19201 40.8448 7.19201 44.2672C7.19201 45.0179 7.36865 45.6031 7.72193 46.0226C8.07521 46.42 8.56097 46.6187 9.17921 46.6187Z" fill="white"/>
<path fill-rule="evenodd" clip-rule="evenodd" d="M21.8326 25.6535L21.8321 25.6569C21.6109 27.2056 21.4903 28.061 21.4688 28.2327L21.4683 28.2366C20.4831 35.5756 18.9588 41.1293 16.871 44.8604C14.7765 48.6033 12.0738 50.573 8.74889 50.573C6.83105 50.573 5.27386 50.0274 4.13515 48.8887L4.13184 48.8854C3.02973 47.7593 2.48399 46.344 2.48399 44.6724C2.48399 41.7266 3.74316 39.1412 6.20475 36.93C8.59079 34.7652 11.6979 32.9808 15.5112 31.5676C15.7344 30.1073 15.9081 28.7967 16.0325 27.6354L16.0331 27.6303L16.5764 23.0724C15.4306 22.9692 14.3561 22.9178 13.3526 22.9178C10.2966 22.9178 8.10383 23.2168 6.72798 23.7796C6.05108 24.0565 5.57717 24.4068 5.27217 24.8135C4.9706 25.2156 4.81285 25.7009 4.81285 26.2908C4.81285 26.8547 5.00075 27.4965 5.4157 28.2237C5.58461 28.5068 5.67397 28.8141 5.67397 29.1391C5.67397 29.7789 5.33114 30.3136 4.776 30.7425L4.77365 30.7443C4.23861 31.152 3.63901 31.3634 2.98602 31.3634C2.13026 31.3634 1.4498 30.9889 0.994368 30.2656L0.990854 30.26C0.325753 29.1673 0 27.9055 0 26.4896C0 23.6821 1.24431 21.5512 3.69717 20.1496C6.11362 18.7688 9.68215 18.105 14.3462 18.105C17.0673 18.105 19.5103 18.3725 21.6713 18.9127C22.3428 19.0777 22.897 19.3366 23.2876 19.7203C23.6903 20.1159 23.8899 20.6165 23.8899 21.1904C23.8899 21.9024 23.7377 22.5179 23.3584 22.9598C23.0533 23.337 22.6103 23.5296 22.0937 23.591C22.0395 24.0761 21.9523 24.7645 21.8326 25.6535ZM21.6988 23.1776C22.317 23.1776 22.7586 23.012 23.0236 22.6808C23.3106 22.3496 23.4541 21.8528 23.4541 21.1904C23.4541 20.263 22.8249 19.6448 21.5663 19.3356C19.4466 18.8057 17.0399 18.5408 14.3462 18.5408C5.07258 18.5408 0.435788 21.1904 0.435788 26.4896C0.435788 27.8364 0.744908 29.0177 1.36315 30.0334C1.73851 30.6295 2.27946 30.9276 2.98602 30.9276C3.53802 30.9276 4.04586 30.751 4.50954 30.3977C4.9953 30.0223 5.23818 29.6028 5.23818 29.1391C5.23818 28.8963 5.17194 28.6644 5.03946 28.4436C4.59786 27.6708 4.37706 26.9532 4.37706 26.2908C4.37706 24.944 5.1057 23.9724 6.56297 23.3763C8.02025 22.7801 10.2834 22.482 13.3526 22.482C14.3744 22.482 15.4663 22.5345 16.628 22.6394C16.7716 22.6524 16.9162 22.6662 17.0619 22.6808C17.0619 22.6808 17.062 22.6808 17.0619 22.6808L16.4658 27.6819C16.3333 28.9183 16.1457 30.3204 15.9028 31.8881C12.0167 33.3012 8.88137 35.0897 6.49673 37.2535C4.1121 39.3953 2.91978 41.8682 2.91978 44.6724C2.91978 46.2401 3.42762 47.5428 4.4433 48.5805C5.48106 49.6183 6.91625 50.1372 8.74889 50.1372C14.9754 50.1372 19.0713 42.8177 21.0364 28.1787C21.0585 28.002 21.1799 27.1409 21.4007 25.5953C21.5553 24.4472 21.6546 23.6412 21.6988 23.1776ZM9.17945 46.1576C10.0286 46.1576 10.9969 45.5102 12.0618 43.9019C13.0215 42.4526 13.899 39.9407 14.6732 36.316C9.85811 38.5875 7.62804 41.2512 7.62804 44.2418C7.62804 44.9244 7.78773 45.3958 8.05177 45.712C8.30833 45.9982 8.66598 46.1576 9.17945 46.1576ZM7.72217 45.9972C7.36889 45.5777 7.19225 44.9925 7.19225 44.2418C7.19225 40.9246 9.72301 38.1052 14.7845 35.7837C14.945 35.7101 15.108 35.637 15.2735 35.5644C15.2381 35.7415 15.2024 35.9163 15.1665 36.0888C14.374 39.8948 13.4602 42.5794 12.4252 44.1425C11.3433 45.7764 10.2614 46.5933 9.17945 46.5933C8.56121 46.5933 8.07545 46.3946 7.72217 45.9972Z" fill="black"/>
<path d="M100.346 20.042C100.848 20.042 101.222 20.1597 101.467 20.395C101.713 20.6303 101.836 20.9781 101.836 21.4383C101.836 21.6841 101.776 21.9011 101.656 22.0894C101.535 22.2724 101.358 22.4162 101.122 22.5208C100.887 22.6201 100.597 22.6698 100.252 22.6698L100.283 22.3168C100.445 22.3168 100.631 22.3404 100.84 22.3874C101.049 22.4293 101.25 22.5077 101.444 22.6228C101.643 22.7326 101.805 22.8895 101.93 23.0934C102.061 23.2921 102.126 23.5484 102.126 23.8621C102.126 24.2073 102.069 24.4897 101.954 24.7093C101.844 24.929 101.697 25.0989 101.514 25.2192C101.331 25.3395 101.135 25.4231 100.926 25.4702C100.717 25.512 100.516 25.533 100.322 25.533H98.3689C98.233 25.533 98.1179 25.4885 98.0238 25.3996C97.9349 25.3055 97.8904 25.1904 97.8904 25.0545V20.5205C97.8904 20.3846 97.9349 20.2721 98.0238 20.1832C98.1179 20.0891 98.233 20.042 98.3689 20.042H100.346ZM100.204 20.9676H98.8082L98.9102 20.8421V22.2619L98.816 22.1913H100.228C100.38 22.1913 100.516 22.1417 100.636 22.0423C100.756 21.9429 100.816 21.7991 100.816 21.6109C100.816 21.386 100.759 21.2239 100.644 21.1245C100.534 21.0199 100.388 20.9676 100.204 20.9676ZM100.267 23.1169H98.8396L98.9102 23.0542V24.7093L98.8317 24.6309H100.322C100.563 24.6309 100.754 24.5681 100.895 24.4426C101.036 24.3119 101.107 24.1184 101.107 23.8621C101.107 23.6268 101.059 23.4569 100.965 23.3523C100.871 23.2477 100.759 23.1823 100.628 23.1562C100.497 23.13 100.377 23.1169 100.267 23.1169ZM103.949 25.0545C103.949 25.1904 103.902 25.3055 103.808 25.3996C103.719 25.4885 103.606 25.533 103.47 25.533C103.34 25.533 103.23 25.4885 103.141 25.3996C103.052 25.3055 103.008 25.1904 103.008 25.0545V20.2068C103.008 20.0708 103.052 19.9584 103.141 19.8695C103.235 19.7753 103.35 19.7283 103.486 19.7283C103.622 19.7283 103.732 19.7753 103.815 19.8695C103.904 19.9584 103.949 20.0708 103.949 20.2068V25.0545ZM109.038 23.4386C109.038 23.8674 108.941 24.2465 108.748 24.576C108.559 24.9002 108.303 25.1538 107.979 25.3369C107.66 25.5199 107.302 25.6114 106.904 25.6114C106.507 25.6114 106.146 25.5199 105.822 25.3369C105.503 25.1538 105.247 24.9002 105.053 24.576C104.865 24.2465 104.771 23.8674 104.771 23.4386C104.771 23.0097 104.865 22.6332 105.053 22.309C105.247 21.9795 105.503 21.7233 105.822 21.5403C106.146 21.352 106.507 21.2579 106.904 21.2579C107.302 21.2579 107.66 21.352 107.979 21.5403C108.303 21.7233 108.559 21.9795 108.748 22.309C108.941 22.6332 109.038 23.0097 109.038 23.4386ZM108.097 23.4386C108.097 23.1719 108.042 22.9418 107.932 22.7483C107.827 22.5496 107.683 22.3953 107.5 22.2855C107.323 22.1756 107.124 22.1207 106.904 22.1207C106.685 22.1207 106.483 22.1756 106.3 22.2855C106.122 22.3953 105.979 22.5496 105.869 22.7483C105.764 22.9418 105.712 23.1719 105.712 23.4386C105.712 23.7 105.764 23.9301 105.869 24.1288C105.979 24.3223 106.122 24.474 106.3 24.5838C106.483 24.6936 106.685 24.7485 106.904 24.7485C107.124 24.7485 107.323 24.6936 107.5 24.5838C107.683 24.474 107.827 24.3223 107.932 24.1288C108.042 23.9301 108.097 23.7 108.097 23.4386ZM111.603 21.2579C111.823 21.2579 112.024 21.2919 112.207 21.3598C112.39 21.4278 112.547 21.5141 112.678 21.6187C112.814 21.7233 112.918 21.8305 112.992 21.9403C113.07 22.0449 113.109 22.1338 113.109 22.207L112.905 22.309V21.7364C112.905 21.6004 112.95 21.488 113.039 21.3991C113.128 21.3049 113.24 21.2579 113.376 21.2579C113.512 21.2579 113.624 21.3023 113.713 21.3912C113.802 21.4801 113.847 21.5952 113.847 21.7364V25.227C113.847 25.682 113.747 26.0454 113.548 26.3174C113.355 26.5945 113.099 26.7933 112.78 26.9135C112.461 27.039 112.118 27.1018 111.752 27.1018C111.648 27.1018 111.512 27.0887 111.344 27.0626C111.177 27.0364 111.017 27.0051 110.866 26.9684C110.714 26.9318 110.599 26.8978 110.521 26.8665C110.364 26.7985 110.254 26.7122 110.191 26.6076C110.134 26.5083 110.123 26.401 110.16 26.286C110.207 26.1343 110.283 26.0298 110.387 25.9722C110.492 25.9199 110.602 25.9147 110.717 25.9565C110.769 25.9722 110.855 26.0036 110.976 26.0507C111.096 26.0977 111.227 26.1396 111.368 26.1762C111.514 26.218 111.642 26.2389 111.752 26.2389C112.144 26.2389 112.435 26.1605 112.623 26.0036C112.811 25.8467 112.905 25.6297 112.905 25.3525V24.6701L112.999 24.7407C112.999 24.8087 112.963 24.8923 112.89 24.9917C112.822 25.0858 112.725 25.18 112.599 25.2741C112.479 25.3682 112.335 25.4493 112.168 25.5173C112.001 25.58 111.823 25.6114 111.634 25.6114C111.263 25.6114 110.929 25.5199 110.63 25.3369C110.332 25.1486 110.097 24.8924 109.924 24.5681C109.752 24.2387 109.666 23.8621 109.666 23.4386C109.666 23.0097 109.752 22.6332 109.924 22.309C110.097 21.9795 110.33 21.7233 110.623 21.5403C110.915 21.352 111.242 21.2579 111.603 21.2579ZM111.752 22.1207C111.517 22.1207 111.31 22.1783 111.132 22.2933C110.955 22.4084 110.816 22.5652 110.717 22.764C110.617 22.9627 110.568 23.1875 110.568 23.4386C110.568 23.6843 110.617 23.9066 110.717 24.1053C110.816 24.304 110.955 24.4609 111.132 24.576C111.31 24.691 111.517 24.7485 111.752 24.7485C111.993 24.7485 112.202 24.691 112.38 24.576C112.557 24.4609 112.696 24.304 112.795 24.1053C112.895 23.9066 112.944 23.6843 112.944 23.4386C112.944 23.1875 112.895 22.9627 112.795 22.764C112.696 22.5652 112.557 22.4084 112.38 22.2933C112.202 22.1783 111.993 22.1207 111.752 22.1207ZM114.544 24.8819C114.492 24.8087 114.468 24.7145 114.474 24.5995C114.479 24.4845 114.547 24.3851 114.677 24.3014C114.761 24.2491 114.85 24.2282 114.944 24.2387C115.038 24.2439 115.13 24.291 115.219 24.3799C115.37 24.5315 115.53 24.6492 115.697 24.7329C115.865 24.8165 116.074 24.8584 116.325 24.8584C116.403 24.8531 116.49 24.8427 116.584 24.827C116.678 24.8061 116.759 24.7642 116.827 24.7015C116.9 24.6335 116.937 24.5315 116.937 24.3956C116.937 24.2805 116.897 24.189 116.819 24.121C116.741 24.053 116.636 23.9955 116.505 23.9484C116.38 23.9014 116.238 23.8569 116.082 23.8151C115.919 23.768 115.752 23.7157 115.58 23.6582C115.412 23.6007 115.258 23.5275 115.117 23.4386C114.976 23.3444 114.861 23.2215 114.772 23.0699C114.683 22.9182 114.638 22.7274 114.638 22.4973C114.638 22.2358 114.711 22.0135 114.858 21.8305C115.004 21.6475 115.193 21.5063 115.423 21.4069C115.658 21.3076 115.904 21.2579 116.16 21.2579C116.322 21.2579 116.492 21.2788 116.67 21.3206C116.848 21.3572 117.018 21.42 117.18 21.5089C117.342 21.5926 117.478 21.705 117.588 21.8462C117.645 21.9246 117.679 22.0188 117.69 22.1286C117.7 22.2384 117.65 22.3378 117.541 22.4267C117.462 22.4894 117.371 22.5182 117.266 22.5129C117.161 22.5025 117.075 22.4659 117.007 22.4031C116.918 22.2881 116.798 22.1966 116.646 22.1286C116.5 22.0606 116.33 22.0266 116.137 22.0266C116.058 22.0266 115.972 22.0371 115.878 22.058C115.789 22.0737 115.71 22.1129 115.642 22.1756C115.574 22.2332 115.54 22.3273 115.54 22.458C115.54 22.5783 115.58 22.6751 115.658 22.7483C115.736 22.8163 115.841 22.8738 115.972 22.9208C116.108 22.9627 116.252 23.0045 116.403 23.0464C116.56 23.0882 116.72 23.1379 116.882 23.1954C117.044 23.2529 117.193 23.3287 117.329 23.4229C117.465 23.517 117.575 23.6399 117.658 23.7915C117.742 23.938 117.784 24.1262 117.784 24.3563C117.784 24.623 117.705 24.8505 117.548 25.0388C117.392 25.227 117.195 25.3708 116.96 25.4702C116.725 25.5643 116.484 25.6114 116.238 25.6114C115.93 25.6114 115.621 25.5591 115.313 25.4545C115.004 25.3447 114.748 25.1538 114.544 24.8819Z" fill="white"/>
<circle cx="91.3024" cy="11.6363" r="1.08947" fill="white"/>
<circle cx="126.165" cy="32.5614" r="2.83262" fill="white"/>
</svg>
